<svg xmlns="http://www.w3.org/2000/svg" width="19" height="18" viewBox="0 0 19 18">
    <path fill="#FFF" d="M12.94.303c.932.042 1.568.19 2.125.406.575.224 1.063.523 1.55 1.01.486.486.785.974 1.009 1.55.216.556.364 1.192.407 2.123.037.822.05 1.151.052 2.838v1.56c-.003 1.67-.015 2-.052 2.818-.043.93-.19 1.567-.407 2.124-.224.575-.523 1.063-1.01 1.55-.486.486-.974.785-1.55 1.009-.556.216-1.192.364-2.123.406-.821.038-1.15.05-2.837.053H8.543c-1.67-.003-2-.015-2.817-.053-.932-.042-1.568-.19-2.124-.406-.576-.224-1.064-.523-1.55-1.01-.487-.486-.786-.974-1.01-1.55-.216-.556-.364-1.192-.406-2.123-.032-.697-.045-1.04-.05-2.158L.585 7.802c.004-1.323.017-1.663.051-2.41.042-.93.19-1.567.407-2.124.223-.575.522-1.063 1.009-1.55.486-.486.974-.785 1.55-1.009C4.158.493 4.794.345 5.726.303 6.423.27 6.766.257 7.883.253L10.531.25c1.323.004 1.663.018 2.41.052zM9.334 4.474C6.833 4.474 4.807 6.5 4.807 9s2.027 4.526 4.526 4.526c2.5 0 4.526-2.026 4.526-4.526s-2.026-4.526-4.526-4.526zm0 1.61c1.611 0 2.917 1.305 2.917 2.916 0 1.61-1.306 2.917-2.917 2.917-1.61 0-2.916-1.306-2.916-2.917 0-1.61 1.305-2.917 2.916-2.917zm4.627-2.817c-.611 0-1.107.496-1.107 1.107 0 .61.496 1.106 1.107 1.106.61 0 1.106-.495 1.106-1.106 0-.611-.495-1.107-1.106-1.107z"/>
</svg>
