<svg xmlns="http://www.w3.org/2000/svg" width="247" height="30" viewBox="0 0 247 30">
    <g fill="none" fill-rule="evenodd">
        <path fill="#FFF" d="M246.07 25.018c0 2.571-2.084 4.656-4.656 4.656-2.572 0-4.656-2.085-4.656-4.656 0-2.572 2.084-4.656 4.656-4.656 2.572 0 4.656 2.084 4.656 4.656"/>
        <path fill="#FCD900" d="M244.054 25.018c0 1.458-1.182 2.64-2.64 2.64-1.458 0-2.64-1.182-2.64-2.64 0-1.458 1.182-2.64 2.64-2.64 1.458 0 2.64 1.182 2.64 2.64"/>
        <path fill="#FCD900" d="M244.054 25.018c0 1.458-1.182 2.64-2.64 2.64-1.458 0-2.64-1.182-2.64-2.64 0-1.458 1.182-2.64 2.64-2.64 1.458 0 2.64 1.182 2.64 2.64"/>
        <path fill="#FFF" d="M5.39 0v23.112c0 .74.649 1.389 1.389 1.389h7.35c.74 0 1.388-.65 1.388-1.389V0h5.39v23.112c0 3.738-3.041 6.778-6.778 6.778h-7.35C3.04 29.89 0 26.85 0 23.112V0h5.39zm33.058 0c4.3 0 7.8 3.499 7.8 7.8V9.84c0 3.256-2.088 6.224-5.117 7.333l3.825 4.666c1.277 1.576 1.33 2.567 1.332 3.504v4.546h-5.39V25.39l-6.392-7.749H30.73v12.25h-5.39V0h13.108zm26.486 0c3.801 0 6.778 2.942 6.778 6.697v4.165c0 1.48-.479 2.908-1.352 4.044.873 1.148 1.352 2.604 1.352 4.123v4.083c0 3.738-3.04 6.778-6.778 6.778H50.805V0h14.129zM87.73 0c1.663 0 2.138.729 2.671 1.84l5.432 11.437c.285.616.307 1.376.308 2.486V29.89h-5.39v-6.125H80.627v6.125h-5.39V16.048c0-1.267 0-2.104.305-2.765l5.392-11.438C81.61.303 82.442 0 83.647 0h4.084zm17.276 0l10.397 18.567V0h5.39v29.89h-5.078l-.065-.115-10.374-18.459V29.89h-5.39V0h5.12zm29.47 0v14.692l4.547 9.631h1.078l4.43-9.628V0h5.35v13.702c0 1.258 0 2.088-.303 2.744l-5.394 11.358c-.26.59-.503 1.025-.906 1.354-.436.357-.976.516-1.748.516h-4.094c-.771 0-1.31-.16-1.748-.516-.403-.33-.648-.769-.913-1.371l-5.344-11.336c-.282-.61-.304-1.365-.305-2.466V0h5.35zm25.5 0v29.674l-5.856-.017L154.12 0h5.857zm17.763 0c3.773 0 6.729 2.92 6.729 6.648v4.135c0 1.47-.475 2.887-1.342 4.015.867 1.14 1.342 2.585 1.342 4.093v4.054c0 3.71-3.019 6.73-6.73 6.73h-14.026V0h14.027zm48.386 0c4.27 0 7.742 3.455 7.742 7.702v.649h-5.31v-.649c0-1.296-1.095-2.391-2.392-2.391h-5.27c-1.318 0-2.392 1.09-2.392 2.432 0 2.059 2.76 3.243 5.957 4.614 4.429 1.9 9.448 4.055 9.448 9.534 0 4.291-3.492 7.783-7.783 7.783h-5.19c-4.291 0-7.782-3.473-7.782-7.743v-.649h5.35v.65c0 1.318 1.092 2.391 2.433 2.391h5.23c1.34 0 2.391-1.068 2.391-2.432 0-2.059-2.76-3.243-5.957-4.615-4.429-1.9-9.447-4.054-9.447-9.533 0-4.27 3.473-7.743 7.742-7.743h5.23zm-16.792 0v5.31h-15.405v6.852h15.405v5.35h-15.405v6.811h15.405v5.35h-20.756V0h20.756zm-144.4 17.64h-8.739v6.86h8.739c.74 0 1.388-.648 1.388-1.388v-4.083c0-.766-.623-1.389-1.388-1.389zm112.806-.127h-8.676v6.81h8.676c.734 0 1.378-.644 1.378-1.378V18.89c0-.76-.618-1.378-1.378-1.378zM86.292 5.349h-1.087l-4.58 9.702v3.324h10.128v-3.327l-4.461-9.699zm-47.844 0H30.73v6.901h7.718c1.306 0 2.41-1.103 2.41-2.409V7.799c0-1.35-1.082-2.45-2.41-2.45zm26.486 0h-8.739v6.901h8.739c.778 0 1.388-.591 1.388-1.347V6.738c0-.766-.623-1.389-1.388-1.389zm112.806-.038h-8.676v6.85h8.676c.772 0 1.378-.587 1.378-1.337V6.689c0-.76-.618-1.378-1.378-1.378z"/>
    </g>
</svg>
