<svg xmlns="http://www.w3.org/2000/svg" width="128" height="128">
  <path d="M88.13 44.207c-4.156 0-6.948 2.473-6.948 6.155 0 3.511 2.987 6.16 6.949 6.16 4.095 0 6.955-2.534 6.955-6.16 0-3.682-2.796-6.155-6.955-6.155m-.002 9.282a3.155 3.155 0 01-3.15-3.152c0-1.725 1.414-3.128 3.15-3.128a3.137 3.137 0 013.138 3.128 3.149 3.149 0 01-3.138 3.152m-14.008-9.096H71.62v3.18l1.696.005c1.378 0 2.5 1.191 2.5 2.656 0 1.799-1.451 2.673-2.432 2.697h-3.1V41.092H66.44v15.024h6.916c3.058 0 6.332-2.31 6.332-5.75 0-3.739-2.83-5.973-5.567-5.973M39.48 50.257c0-1.487 1.198-2.697 2.67-2.697h3.043l-2.456 4.1h3.67l2.47-3.863v-3.395l-7.331.008c-3.198 0-5.8 2.626-5.8 5.853s2.602 5.853 5.8 5.853H48.9v-3.164h-6.75c-1.472 0-2.67-1.21-2.67-2.695m-10.937-9.165h-9.377v15.024h3.725V44.37l4.833.004c1.325.002 2.741.707 2.741 2.683 0 1.51-1.065 2.656-2.556 2.656l-3.726-.002v3.131h2.612c2.243.09 3.234 1.12 3.249 3.336v3.212h3.908v-4.277c0-2.267-1.606-3.419-3.15-3.807 2.427-.82 3.621-2.708 3.621-4.995 0-3.223-3.052-5.219-5.88-5.219m76.922 8.768c2.586-.812 3.324-2.229 3.333-5.046v-.434H105v.636c0 1.888-.802 3.24-2.582 3.24h-1.808v-7.163h-3.856v15.024h3.856v-4.684h1.384c1.918 0 3.09 1.104 3.09 2.845v1.839h3.833v-1.712c0-2.245-.997-3.867-3.45-4.545m-51.007.397c0-1.487 1.198-2.697 2.67-2.697h3.043l-2.457 4.1h3.67l2.47-3.863v-3.395l-7.331.008c-3.198 0-5.799 2.626-5.799 5.853s2.601 5.853 5.799 5.853h7.355v-3.164h-6.75c-1.472 0-2.67-1.21-2.67-2.695m22.17 21.939c9.866-3.95 16.009-6.225 32.287-10.18-8.834.583-28.39 1.926-41.867 4.556l9.58 5.624M45.953 85.282h12.893c2.554-3.868 5.096-5.756 8.056-7.855-2.24-.865-4.49-1.701-6.78-2.51-8.234 3.635-12.814 8.513-14.17 10.365m2.551-14.078c-11.496 4.112-17.898 8.576-22.214 14.078h14.244c1.388-1.932 6.673-7.502 16.605-11.376-2.74-.927-7.498-2.413-8.635-2.702m5.904-8.659H22.905c31.759 5.741 47.062 13.119 71.67 23.553-2.103-1.571-36.02-21.551-40.168-23.553" fill="#FFFFFE" fill-rule="evenodd"/>
</svg>
