<svg width="1062px" height="1062px" viewBox="0 0 1062 1062" version="1.1" xmlns="http://www.w3.org/2000/svg" xmlns:xlink="http://www.w3.org/1999/xlink">
    <defs>
        <polygon id="path-1" points="0 0 200 0 200 283.050781 0 283.050781"></polygon>
        <polygon id="path-3" points="0 0 56.199219 0 56.199219 57 0 57"></polygon>
    </defs>
    <g id="Page-1" stroke="none" stroke-width="1" fill="none" fill-rule="evenodd">
        <g id="logo-vans" transform="translate(0.000000, 329.000000)">
            <polyline id="Path" fill="#fff" points="274.21875 0.53125 351.628906 0.53125 224.800781 400.074219 129.363281 400.074219 0 2.589844 78.253906 2.882813 179.40625 308.257813"></polyline>
            <polygon id="Path" fill="#fff" points="274.410156 68.777344 993.019531 68.777344 993.019531 0.00390625 274.410156 0.00390625"></polygon>
            <path d="M431.597656,306.925781 L407.890625,209.796875 L385.363281,306.925781 L431.597656,306.925781 Z M364.023438,399.636719 L294.078125,399.636719 L372.316406,128.859375 L444.640625,128.859375 L522.894531,399.636719 L451.757813,399.636719 L443.453125,364.3125 L372.316406,364.3125 L364.023438,399.636719 Z" id="Shape" fill="#fff" fill-rule="nonzero"></path>
            <polyline id="Path" fill="#fff" points="614.191406 128.863281 692.429688 276.019531 690.0625 214.210938 690.0625 128.863281 758.828125 128.863281 758.828125 399.636719 691.25 399.636719 612.996094 252.476563 616.558594 314.285156 616.558594 399.636719 547.785156 399.636719 547.785156 128.863281"></polyline>
            <g id="Clipped" transform="translate(788.000000, 121.000000)">
                <mask id="mask-2" fill="white">
                    <use xlink:href="#path-1"></use>
                </mask>
                <g id="Path"></g>
                <path d="M193.726563,85.851563 L126.140625,85.851563 C125.347656,77.023438 121.792969,71.140625 115.472656,68.199219 C111.503906,64.285156 105.574219,62.3125 97.683594,62.3125 C81.863281,62.3125 73.972656,67.710938 73.972656,78.496094 C73.972656,88.316406 88.199219,97.621094 116.667969,106.460938 C171.972656,123.148438 199.660156,151.601563 199.660156,191.804688 C198.058594,251.660156 164.082031,282.0625 97.683594,283.050781 C39.976563,280.105469 7.582031,250.671875 0.46875,194.753906 L69.230469,194.753906 C71.605469,204.570313 75.558594,211.929688 81.085938,216.828125 C86.613281,220.757813 93.335938,222.714844 101.234375,222.714844 C121.792969,222.714844 132.066406,216.339844 132.066406,203.585938 C132.066406,192.800781 118.242188,183.488281 90.574219,175.621094 C34.433594,158.960938 6.394531,129.519531 6.394531,87.328125 C7.964844,31.410156 39.183594,2.484375 100.058594,0.507813 C155.371094,1.496094 186.613281,29.9375 193.726563,85.851563" id="Path" fill="#fff" mask="url(#mask-2)"></path>
            </g>
            <g id="Clipped" transform="translate(1005.000000, 93.000000)">
                <mask id="mask-4" fill="white">
                    <use xlink:href="#path-3"></use>
                </mask>
                <g id="Path"></g>
                <path d="M53.070313,28.726563 L49.929688,28.726563 C49.910156,40.785156 40.160156,50.546875 28.089844,50.566406 C16.039063,50.546875 6.28125,40.785156 6.269531,28.726563 C6.28125,16.671875 16.039063,6.914063 28.089844,6.886719 C40.160156,6.914063 49.910156,16.671875 49.929688,28.726563 L56.199219,28.726563 C56.199219,13.203125 43.609375,0.625 28.089844,0.621094 C12.570313,0.625 0,13.203125 0,28.726563 C0,44.253906 12.570313,56.835938 28.089844,56.839844 C43.609375,56.835938 56.199219,44.253906 56.199219,28.726563" id="Path" fill="#fff" mask="url(#mask-4)"></path>
            </g>
            <path d="M1028.35156,109.785156 L1028.35156,120.84375 C1035.35938,121.078125 1038.87891,118.910156 1038.87891,114.347656 C1038.87891,110.257813 1036.28906,108.207031 1031.14844,108.207031 C1029.05078,108.089844 1028.10938,108.621094 1028.35156,109.785156 M1048.87109,135.40625 L1048.87109,136.28125 L1041.51172,136.28125 L1030.98047,122.421875 L1028.35156,122.59375 L1028.35156,131.367188 C1027.98828,134.175781 1029.33984,135.523438 1032.37109,135.40625 L1032.37109,136.28125 L1019.92188,136.28125 L1019.92188,135.40625 C1022.96094,135.644531 1024.25,134.117188 1023.78125,130.84375 L1023.78125,111.367188 C1024.12891,108.554688 1022.83984,107.207031 1019.92188,107.328125 L1019.92188,106.621094 L1032.37109,106.621094 C1039.85938,106.742188 1043.67188,109.316406 1043.78906,114.347656 C1043.78906,118.558594 1041.08984,121.078125 1035.71875,121.890625 L1044.85156,133.300781 C1046.01953,134.703125 1047.35938,135.40625 1048.87109,135.40625" id="Shape" fill="#fff" fill-rule="nonzero"></path>
        </g>
    </g>
</svg>
