<svg xmlns="http://www.w3.org/2000/svg" xmlns:xlink="http://www.w3.org/1999/xlink" width="128" height="128">
  <defs>
    <path id="a" d="M0 0h89.76v69.888H0z"/>
  </defs>
  <g fill="none" fill-rule="evenodd" transform="translate(20 32)">
    <mask id="b" fill="#fff">
      <use xlink:href="#a"/>
    </mask>
    <path fill="#FEFEFE" d="M79.689 67.272h-.06v-.537h.067c.266 0 .4.088.4.255 0 .187-.138.282-.407.282zm.372.263a.57.57 0 00.397-.549c0-.384-.277-.588-.809-.588h-.402v1.979h.381v-.781l.584.78h.46l-.64-.83.029-.01zm-.196 1.318c-.792 0-1.435-.656-1.435-1.465 0-.803.643-1.468 1.414-1.468h.021c.787 0 1.423.654 1.423 1.468 0 .809-.636 1.465-1.423 1.465zm-.026-3.185c-.92 0-1.686.777-1.686 1.716 0 .95.766 1.713 1.712 1.713.941 0 1.697-.771 1.697-1.713a1.7 1.7 0 00-1.723-1.716zM10.606 2.142c.608-.201 1.461-1.997 2.29-1.893.356.044 1.756 2.873 1.756 2.873 11.39.573 25.41 14.342 27.222 15.736.873.673 4.548 4.483 11.281 7.436 2.766 1.212 5.542 1.724 8.116 1.54 3.446-.243 7.289-3.266 9.65-7.37 2.967-5.15 4.232-14.112 12.789-19.193 1.188-.708 3.912-2.3 5.477-.297 1.264 1.616.227 4.303-1.095 5.585-.824.8-2.339 1.621-5.204 2.98-.965.457-2.553 1.65-3.174 2.12-3.069 2.354-5.3 7.663-7.778 13.48 0 0-1.049 2.86-5.706 5.94-.779.511-.075.94.775 2.041 1.103 1.432 3.296 7.352 3.015 16.34-.049 1.59.595 2.282 1.32 3.584 1.265 2.257 3.75 1.765 3.689 4.71-.081 3.976 2.842 4.823 1.91 6.653-.687 1.339-.455 2.627-.449 3.926.003.665.358 1.63-1.012 1.55-5.572-.326-5.199-7.816-5.1-10.39.095-.337-.166-.949-.208-.979-.267-.198-3.754-2.897-3.983-3.132-4.221-4.29-7-8.146-8.556-12.111-1.03-2.636-2.09-5.253-3.898-6.916-2.019-1.861-4.521-2.895-6.699-2.906-15.517-.082-18.705-6.89-22.93-10.29-.123-.091-.511-.302-.74-.32-.23.018-.423.302-.568.425-1.628 1.7-3.274 2.267-5.482 2.267-5.24 0-10.887-4.601-11.872-3.572-.76.797-.112 2.438-1.496 2.715-2.023.405-4.105-1.587-3.936-3.27.3-3.024 3.39-3.906 6.099-4.206 2.241-.25 4.071.364 4.493.421 1.255.166 1.473-1.346 1.261-2.33-.224-1.05-1.221-1.273-2.249-1.576-1.253-.37-2.645.665-3.586.336-1.1-.383-1.176-.95-2.1-1.757-1.147-1.009-2.494-1.276-2.49-2.71 0-1.306 1.596-1.416 2.065-2.635.227-.595.157-1.228.358-1.592.547-.988 1.56-.938 2.379-1.745C7.352 2.514 7.9.386 8.485.295c.581-.09 1.545 2.04 2.121 1.847z" mask="url(#b)"/>
  </g>
</svg>
