<svg width="79px" height="79px" viewBox="0 0 79 79" version="1.1" xmlns="http://www.w3.org/2000/svg" xmlns:xlink="http://www.w3.org/1999/xlink">
    <g id="Page-1" stroke="none" stroke-width="1" fill="none" fill-rule="evenodd">
        <g id="logo-fila" transform="translate(6.000000, 28.000000)" fill="#FFFFFF">
            <path d="M21.567,18.908 L21.504,3.032 C21.504,1.435 22.746,0.144 24.34,0.144 L24.651,0.144 C26.246,0.144 27.54,1.435 27.54,3.032 L27.603,18.908 C27.603,20.501 26.313,21.796 24.713,21.796 L24.386,21.796 C22.787,21.796 21.567,20.501 21.567,18.908 Z M58.032,2.02 L64.449,12.467 C65.836,14.723 66.159,15.311 66.159,16.974 C66.159,19.598 63.781,21.604 61.67,21.604 L53.006,21.604 C51.422,21.604 50.146,20.511 50.146,18.931 L50.146,18.751 C50.146,17.172 51.422,15.893 53.006,15.893 L58.317,15.893 C58.65,15.893 58.861,15.849 58.949,15.638 C59.046,15.408 59.019,15.278 58.861,15.021 L55.078,8.948 C55.014,8.848 54.944,8.708 54.825,8.708 C54.715,8.708 54.621,8.848 54.57,8.956 L48.784,18.879 C47.887,20.454 46.826,21.605 45.245,21.605 L34.128,21.605 C32.023,21.605 29.903,19.529 29.903,17.379 L29.903,3.023 C29.903,1.445 31.18,0.164 32.756,0.164 L33.12,0.164 C34.7,0.164 35.98,1.445 35.98,3.023 L35.975,14.75 C35.975,15.184 36.289,15.526 36.756,15.526 L42.284,15.526 C43.249,15.526 43.834,15.179 44.341,14.334 L51.771,2.019 C52.481,0.848 53.616,0.221 54.956,0.221 C56.252,0.221 57.279,0.808 58.032,2.019 L58.032,2.02 Z M7.26,14.173 C6.829,14.173 6.484,14.52 6.484,14.95 L6.484,18.945 C6.484,20.524 5.205,21.799 3.629,21.799 L3.262,21.799 C1.685,21.799 0.407,20.524 0.407,18.945 L0.409,11.679 C0.409,9.835 1.825,8.277 3.809,8.277 L15.419,8.277 C16.994,8.277 18.274,9.557 18.274,11.136 L18.274,11.316 C18.274,12.896 16.994,14.173 15.419,14.173 L7.259,14.173 L7.26,14.173 Z" id="Shape" fill-rule="nonzero"></path>
            <path d="M3.297,0.555 L16.82,0.555 C18.413,0.555 19.71,1.799 19.71,3.391 L19.71,3.571 C19.71,5.171 18.413,6.463 16.82,6.463 L3.297,6.463 C1.702,6.463 0.408,5.171 0.408,3.571 L0.408,3.373 C0.408,1.776 1.702,0.555 3.297,0.555" id="Path"></path>
        </g>
    </g>
</svg>
