<svg xmlns="http://www.w3.org/2000/svg" width="128" height="128">
  <g fill="#FFF" fill-rule="evenodd">
    <path d="M87.942 82.816V48.977h-7.391v-9.971h26.755v9.971h-7.43v41.179h-3.169l-8.765-7.34m-42.231-1.209c1.972-1.642 2.308-3.679 2.308-5.503v-7.671H37.308v10.409a2.695 2.695 0 01-2.694 2.695c-1.488-.001-2.593-1.206-2.593-2.695V49.349c0-1.489 1.105-2.694 2.593-2.694a2.694 2.694 0 012.694 2.694v10.474h10.699V48.957c0-6.004-3.923-10.944-13.483-10.957C24.71 38 21.001 42.965 21 48.969l.001 30.791c0 5.953 4.723 10.457 10.766 10.457h3.319l10.625-8.61m47.024 8.621L66.682 68.4 39.681 90.228h53.054"/>
    <path d="M74.117 39.064H59.189l-8.696 39.014 16.194-13.067L83.57 79.157l-9.453-40.093zM63.8 62.509l2.887-14.745 2.868 14.745H63.8zm45.447-21.021c0-1.425 1.156-2.475 2.521-2.475 1.354-.001 2.508 1.05 2.508 2.475 0 1.438-1.155 2.488-2.508 2.488-1.365 0-2.521-1.05-2.521-2.488zm2.521 2.074c1.123 0 2.009-.879 2.009-2.074.001-1.176-.886-2.062-2.009-2.062-1.135 0-2.022.887-2.022 2.062 0 1.194.886 2.074 2.022 2.074zm-.524-.636h-.434v-2.863h1.09c.676 0 1.01.25 1.01.814.001.512-.321.736-.741.789l.814 1.26h-.486l-.755-1.242h-.498v1.242zm.518-1.609c.367 0 .696-.026.696-.466 0-.355-.322-.42-.624-.42h-.59v.886h.518z"/>
  </g>
</svg>
