<svg width="660px" height="660px" viewBox="0 0 660 660" version="1.1" xmlns="http://www.w3.org/2000/svg" xmlns:xlink="http://www.w3.org/1999/xlink">
    <defs>
        <polygon id="path-1" points="-2.38742359e-12 510 510 510 510 -4.54747351e-13 -2.38742359e-12 -4.54747351e-13"></polygon>
    </defs>
    <g id="Page-1" stroke="none" stroke-width="1" fill="none" fill-rule="evenodd">
        <g id="logo-adidas-originals" transform="translate(76.000000, 77.000000)">
            <g id="g10" transform="translate(255.000000, 255.520000) scale(-1, 1) rotate(-180.000000) translate(-255.000000, -255.520000) translate(0.000000, 0.520000)">
                <g id="g12">
                    <g id="g14-Clipped">
                        <g>
                            <mask id="mask-2" fill="white">
                                <use xlink:href="#path-1"></use>
                            </mask>
                            <g id="path-1"></g>
                            <g id="g14" mask="url(#mask-2)">
                                <g transform="translate(41.000000, 40.000000)" id="Group">
                                    <g transform="translate(0.333329, -0.000009)">
                                        <path d="M396.714657,223.265328 C393.97599,217.937328 389.44799,210.975995 384.878657,206.485328 L45.5026655,206.485328 C42.7759989,210.167995 37.3093324,217.533328 34.5919991,223.265328 L396.714657,223.265328 Z M371.230657,189.293329 L60.0559985,189.293329 C64.6159984,183.541329 70.0813316,177.791996 75.5266648,174.129329 L353.938658,174.129329 C360.319991,177.791996 366.699991,183.541329 371.230657,189.293329 Z M333.043992,158.137329 L247.513327,158.137329 C244.755994,144.626663 244.755994,131.923997 244.755994,122.52933 C270.259993,124.16533 303.010659,135.606663 333.043992,158.137329 Z M428.559989,333.835992 C389.44799,331.374658 333.950658,305.181326 297.535993,262.583993 C290.267993,254.805327 284.79466,247.015994 280.263993,239.235994 L404.90799,239.235994 C422.197323,273.23866 431.277323,306.391992 428.559989,333.835992 Z M185.634662,122.52933 C185.634662,131.923997 185.634662,144.626663 184.729329,158.137329 L98.2733309,158.137329 C128.30533,135.606663 161.982663,124.16533 185.634662,122.52933 Z M215.667995,120.06933 C224.755994,129.06933 233.855994,141.770663 242.037327,158.137329 L188.362662,158.137329 C197.450662,141.770663 205.643995,129.06933 215.667995,120.06933 Z M151.958663,239.235994 C147.418663,247.015994 141.047996,254.805327 134.67733,262.583993 C98.2733309,305.181326 41.8693323,331.374658 3.65333322,333.835992 C0.93599995,306.391992 9.1186664,273.23866 26.3999993,239.235994 L151.958663,239.235994 Z M270.259993,239.235994 C270.259993,249.073327 271.165327,258.083994 271.165327,269.141327 C271.165327,328.509325 244.755994,389.934657 215.667995,417.38799 C185.634662,389.934657 160.150663,328.509325 160.150663,269.141327 C160.150663,258.083994 160.150663,249.073327 161.982663,239.235994 L270.259993,239.235994 Z M395.789323,0.467999988 C414.005323,0.467999988 428.559989,7.83333314 428.559989,25.478666 C428.559989,35.7199991 421.293323,42.6719989 409.457323,45.5279989 C397.61999,48.4026655 383.066657,47.9879988 383.066657,55.7679986 C383.97199,60.6919985 388.541324,61.9133318 395.789323,61.9133318 C406.718656,61.9133318 406.718656,56.1813319 407.625323,52.0839987 L425.841323,52.0839987 C424.029323,66.0093317 413.09999,75.8159981 394.902657,75.8159981 C375.779991,75.8159981 364.869324,65.5759984 364.869324,52.4986654 C364.869324,45.1333322 368.513324,38.1613324 374.873324,34.8533325 C379.422657,32.8239992 385.78399,31.1906659 393.07199,29.9693326 C401.26399,29.1613326 408.530656,28.334666 409.457323,22.6026661 C409.457323,18.9013329 404.90799,13.997333 396.714657,13.997333 C384.878657,13.997333 382.15999,20.9493328 382.15999,25.478666 L363.037324,25.478666 C363.037324,10.7279997 375.779991,0.467999988 395.789323,0.467999988 Z M296.630659,38.1613324 C296.630659,27.0933327 306.634659,17.6799996 317.565325,17.6799996 C328.474658,17.6799996 337.574658,27.0933327 337.574658,38.1613324 C337.574658,49.6239988 328.474658,59.4506652 317.565325,59.4506652 C306.634659,59.4506652 296.630659,49.6239988 296.630659,38.1613324 Z M316.658659,0.467999988 C295.723993,0.467999988 278.453326,17.6799996 278.453326,38.1613324 C278.453326,59.4506652 295.723993,75.8159981 316.658659,75.8159981 C324.851992,75.8159981 332.098658,73.7679982 337.574658,69.6919983 L337.574658,75.0279981 L355.770658,75.0279981 L355.770658,2.12133328 L337.574658,2.12133328 L337.574658,7.00533316 C332.098658,3.34266658 324.851992,0.467999988 316.658659,0.467999988 Z M212.919995,38.1613324 C212.919995,27.0933327 222.945328,17.6799996 233.855994,17.6799996 C245.701327,17.6799996 254.779994,27.0933327 254.779994,38.1613324 C254.779994,49.6239988 245.701327,59.4506652 233.855994,59.4506652 C222.945328,59.4506652 212.919995,49.6239988 212.919995,38.1613324 Z M254.779994,99.9999975 L272.977326,99.9999975 L272.977326,2.12133328 L254.779994,2.12133328 L254.779994,7.00533316 C249.325327,3.34266658 241.133327,0.467999988 233.855994,0.467999988 C212.919995,0.467999988 195.638662,17.6799996 195.638662,38.1613324 C195.638662,59.4506652 212.919995,75.8159981 233.855994,75.8159981 C241.133327,75.8159981 248.41866,73.7679982 254.779994,69.6919983 L254.779994,99.9999975 Z M170.165329,99.9999975 L188.362662,99.9999975 L188.362662,81.9613313 L170.165329,81.9613313 L170.165329,99.9999975 Z M188.362662,2.12133328 L170.165329,2.12133328 L170.165329,75.0293315 L188.362662,75.0293315 L188.362662,2.12133328 Z M101.019997,38.1613324 C101.019997,27.0933327 111.025331,17.6799996 122.84133,17.6799996 C133.770663,17.6799996 143.775996,27.0933327 143.775996,38.1613324 C143.775996,49.6239988 133.770663,59.4506652 122.84133,59.4506652 C111.025331,59.4506652 101.019997,49.6239988 101.019997,38.1613324 Z M121.954664,0.467999988 C101.019997,0.467999988 83.7186645,17.6799996 83.7186645,38.1613324 C83.7186645,59.4506652 101.019997,75.8159981 121.954664,75.8159981 C130.13733,75.8159981 137.394663,73.7679982 143.775996,69.6919983 L143.775996,99.9999975 L161.982663,99.9999975 L161.982663,2.12133328 L143.775996,2.12133328 L143.775996,7.00533316 C137.394663,3.34266658 130.13733,0.467999988 121.954664,0.467999988 Z M17.3106662,38.1613324 C17.3106662,27.0933327 27.3053326,17.6799996 38.215999,17.6799996 C50.0613321,17.6799996 60.0559985,27.0933327 60.0559985,38.1613324 C60.0559985,49.6239988 50.0613321,59.4506652 38.215999,59.4506652 C27.3053326,59.4506652 17.3106662,49.6239988 17.3106662,38.1613324 Z M38.215999,0.467999988 C17.3106662,0.467999988 0.01999997,17.6799996 0.01999997,38.1613324 C0.01999997,59.4506652 17.3106662,75.8159981 38.215999,75.8159981 C46.4093321,75.8159981 53.705332,73.7679982 60.0559985,69.6919983 L60.0559985,75.0279981 L77.3373314,75.0279981 L77.3373314,2.12133328 L60.0559985,2.12133328 L60.0559985,7.00533316 C53.705332,3.34266658 46.4093321,0.467999988 38.215999,0.467999988 Z" id="path20" fill="#FFFFFF" fill-rule="nonzero"></path>
                                        <path d="M416.72399,81.9613313 C411.26799,81.9613313 407.625323,86.0959978 407.625323,90.9799977 C407.625323,95.9039976 411.26799,99.9999975 416.72399,99.9999975 C421.293323,99.9999975 425.821323,95.9039976 425.821323,90.9799977 C425.821323,86.0959978 421.293323,81.9613313 416.72399,81.9613313 M416.72399,98.7799975 C412.194656,98.7799975 408.530656,95.1159976 408.530656,90.9799977 C408.530656,86.4906645 412.194656,83.2213313 416.72399,83.2213313 C420.366656,83.2213313 424.010656,86.4906645 424.010656,90.9799977 C424.010656,95.1159976 420.366656,98.7799975 416.72399,98.7799975" id="path22" fill="#FFFFFF" fill-rule="nonzero"></path>
                                        <path d="M418.534656,86.0959978 L416.72399,90.1933311 L414.91199,90.1933311 L414.91199,86.0959978 L413.09999,86.0959978 L413.09999,95.9039976 L416.72399,95.9039976 C418.534656,95.9039976 420.366656,94.6839976 420.366656,93.0479977 C420.366656,91.4146644 419.441323,90.5866644 417.629323,90.1933311 L420.366656,86.0959978 M416.72399,94.6839976 L414.91199,94.6839976 L414.91199,90.9799977 L416.72399,90.9799977 C417.629323,90.9799977 418.534656,91.8066644 418.534656,93.0479977 C418.534656,93.8559977 417.629323,94.6839976 416.72399,94.6839976" id="path24" fill="#FFFFFF" fill-rule="nonzero"></path>
                                    </g>
                                </g>
                            </g>
                        </g>
                    </g>
                </g>
            </g>
        </g>
    </g>
</svg>
