<svg xmlns="http://www.w3.org/2000/svg" xmlns:xlink="http://www.w3.org/1999/xlink" width="128" height="128">
  <defs>
    <path id="a" d="M0 .065h89.796V46.66H0z"/>
  </defs>
  <g fill="none" fill-rule="evenodd">
    <path fill="#FFFFFE" d="M48.864 72.878L41.852 60.72l-13.267 7.668 2.573 4.49h17.706m46.664 0L72.574 33.175l-13.267 7.619 18.464 32.084h17.757"/>
    <g transform="translate(19 47.034)">
      <mask id="b" fill="#fff">
        <use xlink:href="#a"/>
      </mask>
      <path fill="#FFFFFE" d="M38.39.065L25.123 7.734l10.501 18.11h-.008v3.783h3.783v-3.594h.001v-.189h13.872L38.39.065m10.544 43.032c-2.32 0-4.34-1.967-4.34-4.339 0-2.371 2.02-4.39 4.34-4.39 2.422 0 4.44 2.019 4.44 4.39 0 2.372-2.018 4.339-4.44 4.339zm4.44-10.847c-1.313-.908-2.826-1.362-4.54-1.362-4.34 0-7.92 3.48-7.92 7.87 0 4.339 3.58 7.92 7.92 7.92 1.714 0 3.278-.504 4.54-1.362v1.009h3.732V25.844h-3.733v6.406zM66.44 43.097c-2.372 0-4.39-1.967-4.39-4.339 0-2.371 2.018-4.39 4.39-4.39 2.37 0 4.338 2.019 4.338 4.39 0 2.372-1.968 4.339-4.338 4.339zm4.338-10.847c-1.261-.908-2.826-1.362-4.49-1.362-4.339 0-7.921 3.48-7.921 7.87 0 4.339 3.582 7.92 7.92 7.92 1.716 0 3.23-.504 4.491-1.362v1.009h3.783V31.039h-3.783v1.211zM25.577 43.097c-2.422 0-4.44-1.967-4.44-4.339 0-2.371 2.018-4.39 4.44-4.39 2.37 0 4.389 2.019 4.389 4.39 0 2.372-2.019 4.339-4.39 4.339zm4.389-10.847c-1.312-.908-2.826-1.362-4.49-1.362-4.39 0-7.97 3.48-7.97 7.87 0 4.339 3.58 7.92 7.97 7.92 1.664 0 3.178-.504 4.49-1.362v1.009h3.783V25.844h-3.783v6.406zm5.65 14.075h3.783V31.039h-3.783zM8.021 43.097c-2.371 0-4.39-1.967-4.39-4.339 0-2.371 2.019-4.39 4.39-4.39 2.421 0 4.44 2.019 4.44 4.39 0 2.372-2.019 4.339-4.44 4.339zm4.44-10.847c-1.312-.908-2.876-1.362-4.541-1.362-4.339 0-7.92 3.48-7.92 7.87 0 4.339 3.581 7.92 7.92 7.92 1.715 0 3.28-.504 4.54-1.362v1.009h3.734V31.039H12.46v1.211zm73.451 5.045c-2.472-.656-5.65-.555-5.65-2.12.1-1.059 1.109-1.361 2.623-1.361 2.27 0 2.421 1.262 2.472 2.069h3.834c-.253-2.976-2.674-4.995-6.508-4.995-3.935 0-6.306 2.17-6.306 4.894 0 1.614.857 3.026 2.119 3.682 1.009.504 2.371.807 3.985 1.06 1.614.251 3.128.352 3.23 1.564 0 .756-.808 1.765-2.523 1.765-2.573-.05-3.179-1.463-3.179-2.422h-3.985c.151 3.078 2.674 5.247 6.911 5.247 3.784 0 6.861-1.463 6.861-5.247 0-2.068-1.513-3.531-3.884-4.136" mask="url(#b)"/>
    </g>
  </g>
</svg>
