<svg xmlns="http://www.w3.org/2000/svg" width="128" height="128">
  <path d="M61.623 33.6l6.848 6.834s-3.577-1.688-8.882-1.688c-5.944 0-17.421 4.913-17.421 17.75 0 10.347 7.106 17.605 18.772 17.605h41.28l5.998 6h-83.95c-2.883 0-4.919-2.423-4.94-4.741V56.518c3.612 0 6.848-1.744 8.023-2.595 7.484-5.361 13.709-15.798 21.679-19.197 2.335-1 6.868-2.609 12.593-1.126zm12.166 12.163l24.74 24.684H60.055c-4.365 0-10.196-2.09-11.96-6.157 0 0 17.302-17.68 18.14-18.527 2.072-2.058 5.764-2.058 7.554 0zm-4.917 2.934c-.205.185-8.577 8.117-8.577 8.117-.436.431-.197.925.367.903h4.735l3.332-2.822c.697-.684 1.373-.56 1.373.184v5.626c-.019.888.77.888 1.249.291l3.46-3.28h4.541c.358-.004.617-.47.125-.948l-8.19-8.071c-.586-.597-1.85-.597-2.415 0zM23.54 85.468c2.525 0 4.54 2.035 4.54 4.616a4.67 4.67 0 01-1.055 2.993l1.137 1.485H25.82l-2.682-3.501 1.409-1.226 1.294 1.688c.227-.416.36-.906.36-1.439 0-1.544-1.16-2.825-2.66-2.825-1.503 0-2.66 1.271-2.66 2.825 0 1.583 1.131 2.8 2.607 2.832l1.218 1.641a4.528 4.528 0 01-1.166.149c-2.515 0-4.54-2.021-4.54-4.622 0-2.58 2.025-4.616 4.54-4.616zm38.427.023c1.388 0 2.35.703 2.848 1.457l-1.22 1c-.298-.412-.87-.694-1.578-.694-.618 0-1.091.309-1.091.73 0 .74.748.763 2.085 1.333 1.496.61 2.113 1.364 2.113 2.646 0 1.573-.974 2.72-3.071 2.72-1.779 0-2.884-.893-3.392-1.971l1.329-.98c.391.703 1.113 1.175 2.074 1.175.913 0 1.233-.459 1.233-.884 0-.777-.925-.972-2.073-1.43-1.189-.462-2.102-1.276-2.102-2.581 0-1.6 1.376-2.521 2.845-2.521zm-28.919.046v4.927c0 1.564.68 2.17 1.702 2.17 1.015 0 1.694-.606 1.694-2.17v-4.927h1.837v5.334c0 2.53-1.6 3.765-3.53 3.765-1.938 0-3.536-1.234-3.536-3.765v-5.334h1.833zm72.464.074c1.55 0 2.828 1.286 2.828 2.956 0 1.167-.571 2.346-1.6 2.79l2.145 3.21h-2.073l-1.9-3.067v-1.66h.398c.717 0 1.192-.491 1.192-1.25 0-.694-.452-1.183-1.035-1.183h-1.42v7.16h-1.822v-8.956zm-61.22 0v8.951h-1.834v-8.95h1.834zm26.42 0v8.951h-1.836v-8.95h1.837zm6.301 0v7.153h3.054v1.798H75.18v-8.95h1.832zm6.884 0l1.877 5.917 1.777-5.917h1.953l-2.85 8.951H84.9l-2.96-8.95h1.956zm14.1 0v1.796h-3.262v2.114h2.638v1.705h-2.638v1.538h3.247v1.798h-5.083v-8.95h5.098zm-47.401 0v4.238l3.31-4.238h2.267l-3.295 4.229 3.494 4.722h-2.28l-2.405-3.224-1.091 1.402v1.822H48.76v-8.95h1.836z" fill="#FFF" fill-rule="evenodd"/>
</svg>
