<svg xmlns="http://www.w3.org/2000/svg" width="128" height="128">
  <path fill="#FEFEFE" d="M83.131 74.447c1.807.009 3.448.79 4.403 2.796.167.35.312.748.435 1.149.377 1.225.549 2.469.549 2.469l.02 5.164s-.085 2.484-.821 4.157a5.165 5.165 0 01-.343.658c-1.004 1.671-2.682 2.457-4.523 2.384-1.873-.073-2.686-1.27-2.686-1.27s-.484-.1-.646-.038c-.159.064-.224.484-.224.484l.011 2.59.006 1.218s.131.452.553.937c.421.486.843.65.843.65l.001.58-7.299-.035-.003-.58s.549-.351.903-.64c.354-.29.64-.933.64-.933l-.002-1.196-.02-4.149-.05-12.45-.007-1.791s-.292-.357-.81-.843c-.52-.487-.974-.52-.974-.52l-.001-.582 6.3.032s-.033.353.002.805c.034.452.389.39.389.39s1.544-1.445 3.354-1.436zm-14.837-.071c1.81.008 3.557.79 4.404 2.794.16.377.303.8.427 1.222.356 1.208.557 2.397.557 2.397l.022 5.162s-.085 2.486-.822 4.16a5.83 5.83 0 01-.384.729c-1.01 1.622-2.668 2.384-4.48 2.313-1.875-.075-2.688-1.273-2.688-1.273s-.483-.098-.645-.034c-.162.062-.224.482-.224.482l.011 2.663.006 1.145s.13.45.552.937c.357.412.712.593.813.638l.029.013.003.58-7.3-.035-.003-.58s.548-.353.903-.643c.354-.288.642-.933.642-.933l-.006-1.122-.017-4.151-.05-12.448-.01-1.862s-.292-.358-.81-.844c-.52-.486-.97-.522-.97-.522l-.002-.58 6.297.03s-.031.355.003.807c.034.452.39.39.39.39s1.544-1.445 3.352-1.435zm-44.396-3.42l9.613.046-.066.62s-.955.368-1.537.862c-.508.433-.679.96-.679.96l.02 4.948v.14l.926.004.132-.144 4.532-4.922s.239-.496.238-.62c0 0-.242-.621-.481-.84a2.478 2.478 0 00-.486-.325l-.097-.049-.038-.622 10.469.05.003.622s-.445-.22-1.707.767c-.81.633-3.72 3.768-5.7 5.94-1.113 1.213-1.93 2.122-1.93 2.122l.002.807 4.833 7.316c.19-.682.591-1.518 1.274-2.325 1.062-1.253 3.06-2.212 5.25-3.362 2.192-1.151 2.027-2.055 2.026-2.377 0-.128-.003-.388-.123-.654-.186-.404-.652-.821-1.82-.807-.732.008-1.585.364-2.366.807l-.174.1c-1.21.713-2.2 1.584-2.2 1.584l-.006-1.684-.01-2.476s1.865-2.154 6.517-2.099c4.553.054 4.085 3.924 4.085 3.924l.002.65.05 11.805s.027.318.223.644l-.004.002c.12.193.295.386.561.52.636.32 1.067.262 1.067.262l.003.677-5.588-.026-.327-.68-.839-.002s-.138.363-1.095.8c-.837.383-1.719 1.028-3.908.272-.907-.315-1.513-.927-1.917-1.61l-5.501-.028-.003-.652s.306-.403.442-.711a.885.885 0 00.052-.352l-.005-.095c-.02-.252-.086-.486-.086-.486l-4.093-5.728-.924.15s-.412.123-.783.68c-.317.469-.442.99-.442.99l.017 3.88s0 .2.326.61c.078.096.175.204.292.324.618.623 1.305.719 1.305.719v.653l-8.825-.044-.004-.652s.58-.337 1.058-.708c.115-.09.21-.19.29-.293.245-.317.322-.636.322-.636l-.05-11.812-.019-4.975s-.242-.59-.791-1.058c-.549-.468-1.305-.782-1.305-.782l-.001-.621zm73.152 3.079h.336c4.555.054 4.086 3.923 4.086 3.923v.434l.052 12.02s.016.192.114.428h-.003c.106.252.304.554.668.74.636.318 1.067.262 1.067.262l.002.677-5.587-.028-.325-.677-.84-.005s-.074.235-1.03.672c-.84.384-1.894 1.054-4.094.333-.955-.313-1.573-1.118-1.966-1.974l-.091-.21a7.785 7.785 0 01-.552-2.343c-.037-.71.346-2.03 1.407-3.284 1.059-1.254 3.059-2.211 5.25-3.364 2.192-1.151 2.027-2.055 2.026-2.378-.003-.162-.004-.54-.256-.87h.002c-.246-.324-.733-.601-1.692-.59-.607.007-1.299.255-1.962.59l-.181.095c-1.382.74-2.593 1.807-2.593 1.807l-.007-1.901-.012-2.26s1.865-2.153 6.517-2.097zM50.355 85.961s-1.417.412-2.448 1.15c-1.22.87-1.544 1.864-1.54 2.638.003.774.459 1.81 1.783 1.912 1.327.104 2.222-1.763 2.222-1.763zm47.073-1.57s-1.418.413-2.449 1.15c-1.22.871-1.543 1.865-1.54 2.639.004.774.46 1.81 1.784 1.912 1.326.103 2.222-1.763 2.222-1.763zm-15.583-6.53c-.66-.003-1.147.218-1.505.53-.834.728-.972 1.942-.972 1.942l.029 6.84S79.7 89.73 81.96 89.8c2.486.077 2.57-3.118 2.57-3.118l-.024-5.936s-.245-1.52-1.222-2.354a2.17 2.17 0 00-1.439-.531zm-14.962-.069c-.706-.004-1.216.25-1.579.597-.77.733-.898 1.875-.898 1.875l.028 6.84s.302 2.557 2.563 2.627c2.488.076 2.57-3.117 2.57-3.117l-.024-5.938s-.234-1.44-1.148-2.284a2.17 2.17 0 00-1.512-.6zM53.628 29.3l.167.008c.801.072 1.045.491 1.045.491l.557.004c.278 0 .382.21.59.384.212.175.246.035.49.142.243.106.803.836 1.223 1.882.423 1.044.289 2.396.328 3.335.039.938.079 2.19.045 2.501-.034.312-.521-.211-.416.173.105.38.523.627.56.905.037.278-.173.103-.138.381.037.277.489.211.558.35.07.14-.277.277-.242.52.037.243.35.209.35.209s.07.07.035.28c-.034.207-.208.276-.277.448-.068.173 0 .279 0 .279s.938.58 1.641 1.535c.77 1.046 1.4 2.3 2.137 3.52.734 1.219 1.717 3.447 1.717 3.447s.86-2.359 1.861-3.778l1.834-2.595s-.176-.348-.385-.558c-.21-.21-.244-.35-.106-.452.14-.104.624-.275.693-.553.068-.276-.456-.661-.456-.661-.001-.266.187-.628.693-.726.347-.069.136-.798.136-.798s-.67-.509-.807-1.533c-.142-1.077-.209-.417-.772-1.706-.167-.386-.003-.902.1-1.25.103-.346.17-1.112.237-1.493.068-.381.448-.97.966-1.66.52-.693 1.075-.83 1.597-.897.522-.066.904.073 1.112-.134.207-.207.139.002.799-.203.659-.205.486-.242.903-.24.418.003.87.214 1.078.215.208.001.208-.21.521-.241.312-.034.523.28.94.558.419.282.593.352.837.596.245.243.248 1.182.248 1.182s.142.243.42.56c.28.312.454.522.595.798.14.279.211.628.211.628s.661.314 1.01.457c.349.14.278.209.244.383-.033.173-.239.763-.1 1.145.142.384.003.487.003.487s-.034 0 .246.487c.28.486.387.73.42.974.037.243-.17.487-.343.727-.172.243-.033.557-.033.557s2.94 4.564 3.604 5.679c.665 1.115 1.333 2.994 1.333 2.994s-.137.034.63.49c.767.454 1.844.46 1.844.46l.31-.173c.313-.173 1.147-.55 1.808-.616.659-.066 1.077-.1 1.32-.236.242-.14.172-.555.448-.59.279-.032.978.457 1.185.876.213.417.073.692.043 1.145-.021.276-.13.676-.235 1.02l-.042.13-.135.411c-.104.314.037.625.037.625s.838 1.082 1.818 2.302c.979 1.222 2.552 3.52 2.552 3.52a67.374 67.374 0 002.584 3.384c1.195 1.46 2.162 2.483 2.796 3.034 1.047.908 1.639.84 2.65 1.471 1.01.631 1.917 1.399 3.033 1.96 1.115.56 1.531.702 1.915.704.383.002.59.071.594.35 0 .279-.243.52-.834.656-.311.072-.762.104-1.28.127-.462.022-.977.037-1.5.069a9.92 9.92 0 01-1.607-.069c-.667-.072-1.307-.182-1.802-.261-.905-.144-2.607.021-3.65.017-1.045-.006-1.326-.701-1.361-1.257-.037-.556.202-1.39.06-1.911-.14-.52-.908-1.393-2.687-2.653-1.13-.798-2.09-1.484-3.05-2.234l.004-.003a36.543 36.543 0 01-1.697-1.398c-1.029-.895-2.134-3.1-2.134-3.1s-1.073 1.487-1.761 2.735c-.337.606-.632 1.138-1.01 1.766-.4.662-.888 1.427-1.616 2.493-1.416 2.077-2.975 3.633-4.084 4.53a7.582 7.582 0 01-2.28 1.276c-.179.06-.333.103-.46.135-.553.136-5.57.145-6.896-.135h-.015l-.01-.002c-1.287-.286-1.888-2.79-2.066-3.866l-.392-2.364s-.465-1.02-.909-2.066c-.015-.03-.026-.062-.04-.092l-.948-2.262s-.361 1.236-.794 2.353c-.1.257-.2.506-.306.734-.551 1.212-2.105 3.46-2.693 4.153-.589.692-2.249 2.768-2.805 3.113-.231.144-.572.239-1.022.299h-.014c-.627.08-1.463.09-2.508.065-.757-.018-1.434.006-2.112-.065l2.085-.001h-2.085a5.634 5.634 0 01-2.062-.614c-1.5-.77-4.055-5.3-4.86-6.76-.141-.256-.315-.573-.511-.924v-.003c-.93-1.688-2.325-4.23-2.644-4.89l-.07-.14c-.341-.652-.524-.593-.524-.593s-.173.347-.655 1.108c-.651 1.023-.278.487-1.212 1.557-.843.97-1.716 1.684-3.13 2.96-.152.135-.308.278-.47.428-1.7 1.553-2.772 2.591-3.082 3.18-.31.588.007 1.808.115 2.57.106.765-.067 1.008-.482 1.387-.416.38-2.329.128-3.094.09-.766-.039-1.74-.183-3.233.053s-2.154.476-3.197.471c-1.043-.005-1.148-.178-1.81-.39-.66-.211-.867-.144-1.217-.18-.347-.036-.454-.453-.523-.627-.072-.175.24-.555.24-.555s-.277-.072-.487-.106c-.21-.036-.452-.281-.559-.525-.103-.243 0-.486 0-.486s.59-.206 1.352-.41c.765-.204 1.32-.48 2.639-1.168 1.318-.689 3.4-1.65 5.445-3.238.218-.17.421-.333.612-.493 1.604-1.343 2.33-2.39 3.195-3.657.77-1.129 3.288-5.13 4.286-6.718l.412-.658.276-.417s-.453-.313-.629-.557c-.175-.245-.036-.94-.036-.94s-.284-.798-.285-1.145c-.002-.348.76-1.247 1.073-1.385.311-.138.383.176.592.177.208 0 1.317-.619 1.63-.722.313-.103.8.247 1.01.353.21.105.625.142 1.114.11.447-.03 2.89-1.167 3.279-1.35l.052-.024s1.445-3.743 1.65-4.369c.207-.624.306-1.803.306-1.803s-.141-.348-.141-.522c0-.175-.071-.626-.071-.626s-.001-.034-.244-.105c-.244-.072-.49-.28-.49-.49 0-.207 1.315-1.59 1.315-1.59s-.072-.765-.039-1.078c.032-.312.274-.763.274-.763s-.139-.347-.383-.694c-.246-.35-.005-.522.065-.836.068-.312 1.037-1.072 1.488-1.45.45-.38.554-.552.97-.794.417-.241 1.391-.063 1.391-.063s.104-.14.556-.17c.451-.033.8.176.8.176s.484-.449 1.285-.376zm23.923 22.119c-.694-.293-1.362-.555-1.45-.468-.074.074-.045.242.042.468.275.718 1.133 2.02 1.084 2.733-.066.936-2.53 1.76-2.53 1.76s-.03 1.006-.098 1.421c-.068.417-.313.383-.31.974.002.59.596 1.01.908 1.08.314.071 2.771-2.627 3.878-3.733 1.027-1.023 2.408-2.582 2.607-2.807l.024-.027s-2.297-.638-3.168-.99c-.289-.117-.64-.267-.987-.411zm-25.099-2.25s-.66.308-1.873.997c-1.07.609-2.114 1.135-2.345 1.253l-.045.03c.052.08.733 1.157 1.675 2.432.98 1.323 1.644 2.508 2.555 4.11.91 1.603.873 1.013 1.115.979.244-.034.201-1.945.165-2.814-.04-.868.2-1.908.2-1.908s-.552-1.541-.838-2.83a7.615 7.615 0 01-.151-.858c-.145-1.32-.458-1.391-.458-1.391zm24.063-7.317c-.244-.314-.485-.07-.485-.07s-.485.725-.725 1.246c-.242.52-.484 1.145-.484 1.145s.872.35 1.883 1.224c1.012.873 2.403 1.226 2.403 1.226s-.737-1.912-1.193-2.782c-.456-.871-1.154-1.675-1.399-1.989zm-27.155-.686l-.273 1.283-.032.8s1.839-.862 1.804-1.104l-.213-.695-.556-.108c-.382-.071-.73-.176-.73-.176z" fill-rule="evenodd"/>
</svg>
