<svg xmlns="http://www.w3.org/2000/svg" xmlns:xlink="http://www.w3.org/1999/xlink" width="100" height="100">
  <defs>
    <path id="a" d="M.016.131h14.305v8.793H.016z"/>
  </defs>
  <g fill="none" fill-rule="evenodd" transform="translate(0 46)">
    <mask id="b" fill="#fff">
      <use xlink:href="#a"/>
    </mask>
    <path fill="#FFFFFE" d="M12.783 4.62c.58-1.278-.216-1.773-2.105-1.773L7.52 2.85c-.687-.001-.832-.056-.679-.387l.227-.493c.14-.318.341-.38 1.03-.381l4.136-.002c.854 0 1.215.112 1.676.29L14.32.13 6.07.133C4.494.13 3.272.845 2.647 2.222L1.76 4.187c-.685 1.465-.193 1.901 1.576 1.901l3.63.002c.694-.001.807.068.66.386l-.276.604c-.144.327-.324.38-1.014.382H2.037C1.152 7.46.802 7.297.443 7.133L0 8.923l8.03-.001c2.136-.002 3.135-.775 3.767-2.152l.986-2.15" mask="url(#b)"/>
    <path fill="#FFFFFE" d="M34.323 5.094c1.028-.001 1.48.125 1.906.235l.881-1.918c-.528.103-1.091.23-2.115.228H31.82l.948-2.054 3.618-.002c1.047.002 1.498.12 1.924.233l.411-1.69H28.617c.068.347.052.673-.326 1.507l-2.637 5.77c-.24.52-.446.842-.657 1.096-.27-.466-.468-.998-.598-1.381l-1.42-4.396L25.925.994c.84-.498 1.302-.646 1.93-.868l-4.07.002c-.033.113-.057.22-.107.329-.134.294-.351.507-1.056.953l-4.268 2.663 1.112-2.438c.381-.836.68-1.16 1.056-1.509L15.338.13c.07.346.061.67-.322 1.505l-2.637 5.772c-.38.834-.674 1.16-1.054 1.515H16.5c-.054-.356-.053-.682.325-1.516l.608-1.318 1.465-.896.904 3.728 15.074-.004 1.178-1.693c-.508.107-1.073.232-2.106.233h-3.872l1.086-2.362h3.162m13.328 1.687s-1.408.33-3.176.328c0 0-1.726.005-2.083 0-.452-.002-.59-.126-.419-.558.17-.433 1.89-4.128 1.89-4.128.06-.133.275-.498.83-.498h3.27a4.914 4.914 0 011.542.274l.52-2.023-.027.002.016-.054-7.007.001c-1.905 0-3.273.685-4.141 2.584l-1.655 3.624c-.869 1.888-.119 2.583 1.772 2.583l7.193-.003 1.475-2.132m12.724.616l2.641-5.772c.378-.833.678-1.158 1.049-1.505l-5.178.003c.063.345.06.67-.324 1.503l-.915 2.01h-3.324l.923-2.008c.386-.837.677-1.162 1.059-1.506l-5.183.002c.064.346.058.668-.332 1.505L48.159 7.4c-.385.83-.68 1.161-1.063 1.513l5.182-.002c-.06-.351-.056-.68.334-1.512l1.057-2.31 3.314-.001-1.054 2.31c-.383.832-.68 1.16-1.057 1.513h5.174c-.061-.352-.054-.681.33-1.515m9.344.054l-3.861-.001 1.075-2.361h3.173c1.017-.002 1.48.123 1.9.232l.88-1.916c-.53.105-1.09.23-2.107.23l-3.182-.001.945-2.057h3.627c1.047 0 1.494.12 1.921.231L74.497.12H64.4c.06.347.053.67-.333 1.507l-2.632 5.769c-.386.834-.686 1.162-1.057 1.513l10.278-.001 1.177-1.694a8.561 8.561 0 01-2.113.234m13.091-5.384l-.484 1.074c-.194.426-.39.493-.965.494h-2.513l.954-2.056 2.503-.002c.57-.002.707.063.505.49zm1.283 3.02c.975-.05 1.844-.12 2.438-1.41l.735-1.618C87.94.582 87.17.116 85.13.116l-9.591.001c.17.349.165.67-.22 1.509l-2.636 5.77c-.381.833-.674 1.16-1.061 1.513l5.18-.001c-.06-.352-.056-.68.326-1.513l1.052-2.309 1.372-.002.366 3.823h4.976c-.238-.333-.243-.789-.345-1.349l-.455-2.474zm8.258-3.13c.15-.319.343-.383 1.04-.385l4.135.002c.86 0 1.206.113 1.674.29l.574-1.75-8.423.005c-1.57 0-2.784.712-3.417 2.09L87.05 4.17c-.681 1.466-.19 1.903 1.577 1.903l3.63-.001c.688 0 .813.067.66.389l-.276.602c-.144.327-.318.382-1.023.382l-4.295.002c-.868 0-1.236-.165-1.598-.33l-.43 1.79 8.02-.001c2.14-.003 3.14-.778 3.775-2.156l.983-2.146c.586-1.279-.209-1.774-2.107-1.773h-3.157c-.696 0-.836-.052-.68-.385l.223-.492m4.804 6.256h.072c.091 0 .162-.03.162-.105 0-.062-.044-.108-.15-.108-.037 0-.064 0-.084.003v.21zm0 .42h-.154V7.9c.058-.008.122-.02.233-.02.125 0 .201.02.25.059.042.032.064.081.064.157 0 .087-.06.149-.14.17v.005c.065.011.105.07.118.178a.589.589 0 00.04.18h-.16a.601.601 0 01-.044-.189c-.012-.078-.059-.11-.137-.11h-.07v.3zm.11-.907c-.273 0-.495.236-.495.527 0 .295.222.525.499.525.277.003.501-.23.501-.525a.515.515 0 00-.501-.527h-.003zm.006-.131c.362 0 .65.294.65.656a.651.651 0 01-.652.659.657.657 0 010-1.315h.002z"/>
  </g>
</svg>
