<?xml version="1.0" encoding="utf-8"?>
<svg version="1.1" id="layer" xmlns="http://www.w3.org/2000/svg" xmlns:xlink="http://www.w3.org/1999/xlink" x="0px" y="0px"
	 viewBox="-153 -46 652 652" style="enable-background:new -153 -46 652 652;" xml:space="preserve">
<style type="text/css">
	.st0{fill:#FFFFFF;}
	.st1{fill:#000000;}
</style>
<path id="パス_1" d="M271.8,154.5c-71.7,0-129.8,61.4-129.8,137.6h259.5C401.6,216.1,343.5,154.5,271.8,154.5"/>
<path class="st0" d="M219.7,279c-1-26.3-15.1-63.6-19.6-71c-4.6-7.4-10.5-5.8-12.5-3.5c-12.3,11.2-28.7,45.8-30.6,74.5L219.7,279z
	 M323.9,279c1-26.3,15.1-63.6,19.6-71s10.5-5.8,12.5-3.5c12.3,11.2,28.7,45.8,30.6,74.5L323.9,279z M330,182.6
	c-15.3-10.6-34.3-16.5-58.1-16.5c-24.1,0-45.5,6.7-58.5,16.5c-5.2,4-4,12-2.4,15.6c10.7,25.6,16.3,53.1,16.5,80.8h88.5
	c0.3-27.7,5.9-55.2,16.5-80.8C335.1,193,334.1,186.7,330,182.6"/>
<path class="st0" d="M36.9,264.8H27v-4.5h12.2c9.4,0,26.4-0.3,36.7-3.4v131.2h10v4.5H27v-4.5h9.9V264.8z M-26,264.8h-9.9v-4.5h12.2
	c9.4,0,26.4-0.3,36.7-3.4v131.2H23v4.5h-58.9v-4.5h9.9V264.8z M259.6,303.4v26.9H257c-6.9-21.6-44-27.4-44-13.5
	c0,15.7,56,6.6,56,45.8c0,10-3.6,31.6-38.3,31.6c-12.2,0-27.8-7-32.3-7s-6.5,7.3-6.5,7.3h-3.8l0-32.9h3.4c1.2,5,3.6,9.7,6.9,13.7
	c9.1,12.6,38.2,19.7,40.7,6.6c3-15.3-54.1-4.2-54.1-47.6c1.1-17.4,15.9-30.8,33.3-30.2c17.8,0,26.1,6.7,31.8,6.7c5.8,0,6-7.4,6-7.4
	L259.6,303.4z M345.8,303.4v26.9h-2.5c-6.9-21.6-44-27.4-44-13.5c0,15.7,56,6.6,56,45.8c0,10-3.6,31.6-38.3,31.6
	c-12.2,0-27.8-7-32.3-7c-4.5,0-6.5,7.3-6.5,7.3h-3.7l0-32.9h3.3c1.2,5,3.6,9.7,6.9,13.7c9.1,12.6,38.2,19.7,40.7,6.6
	c3-15.3-54.1-4.2-54.1-47.6c1.1-17.4,15.9-30.8,33.3-30.2c17.8,0,26.1,6.7,31.8,6.7c5.8,0,6-7.4,6-7.4L345.8,303.4z M125.4,319
	c0-6.4,3.1-9.5,8.4-9.5c5.3,0,8.3,3.1,8.3,9.5v28.7h-16.7V319z M178.6,366c-10.3,13.9-22.7,21-35.5,21c-16.5,0-17.6-17.5-17.6-29v-5
	h55.3c0-13.2-4.9-49.5-47.4-49.5c-26.2,0-50.7,13.9-50.7,45.6c0,38.1,36,45.2,50.7,45.2c30.9,0,41.9-16.4,48.4-25.1L178.6,366z
	 M401.7,319c0-6.4,3.1-9.5,8.4-9.5c5.3,0,8.3,3.1,8.3,9.5v28.7h-16.7V319z M454.9,366c-10.3,13.9-22.7,21-35.5,21
	c-16.5,0-17.6-17.5-17.6-29v-5h55.3c0-13.2-4.9-49.5-47.4-49.5c-26.2,0-50.7,13.9-50.7,45.6c0,38.1,36,45.2,50.7,45.2
	c30.9,0,41.9-16.4,48.4-25.1L454.9,366z M-89.2,319c0-6.4,3.1-9.5,8.4-9.5s8.3,3.1,8.3,9.5v28.7h-16.7V319z M-36.1,366
	c-10.3,13.9-22.7,21-35.5,21c-16.5,0-17.6-17.5-17.6-29v-5h55.3c0-13.2-4.9-49.5-47.4-49.5c-26.2,0-50.7,13.9-50.7,45.6
	c0,38.1,36,45.2,50.7,45.2c30.9,0,41.9-16.4,48.4-25.1L-36.1,366z"/>
<path class="st0" d="M468,303.5c-0.3,5.5-5.1,9.7-10.6,9.4c-5.5-0.3-9.7-5.1-9.4-10.6c0.3-5.2,4.6-9.3,9.8-9.4
	c5.7,0.1,10.2,4.7,10.1,10.4C468,303.4,468,303.4,468,303.5 M449.6,303.5c0.3,4.7,4.3,8.2,9,8c4.7-0.3,8.2-4.3,8-9
	c-0.3-4.4-3.9-7.9-8.3-8c-4.8,0.1-8.7,4-8.6,8.8C449.6,303.4,449.6,303.4,449.6,303.5 M455.5,302.8V299h3.5c0.9-0.1,1.8,0.6,1.9,1.5
	c0,0.1,0,0.3,0,0.4c0,1.6-1.1,2-2.4,2L455.5,302.8z M454.1,308.8h1.4v-4.7h3.4c1.4,0,1.6,0.9,1.7,2c0.2,1.1,0,2.3,0.4,2.7h1.5
	c-0.5-1-0.7-2-0.6-3.1c-0.1-1.1-0.3-2-1.5-2.3v0c1.2-0.4,2-1.6,1.8-2.8c0-1.6-1.2-2.9-2.8-2.9c-0.1,0-0.3,0-0.4,0h-4.9L454.1,308.8z
	"/>
</svg>
