<svg xmlns="http://www.w3.org/2000/svg" width="128" height="128">
  <g fill="#FFF" fill-rule="evenodd">
    <path d="M32.459 54.022s.407 1.382.445 1.548c.012-.772.714-1.316 1.613-1.137.89.182 2.298.466 2.877.58 2.565.51 3.767.961 4.711 3.155l3.007 6.983c-.65-.419-1.512-.581-3.685-.297l-.535.066-1.973-5.362c-.458-1.233-.993-1.988-2.465-2.17-.41-.045-3.14-.378-3.14-.378l2.471 8.559-5.477.7-2.7-13.217 4.85.97zm20.44 5.528c.74.08 1.199.435 1.442.832l.329.53-8.214-.24-.943-1.958 7.386.836zm2.652 2.798l.808 1.327-7.763 1.422-1.047-2.16 8.002-.589zm2.41 3.933l-7.235 3.217c-1.82.815-3.435.717-4.01-.62-.27-.62-1.445-.587-3.694.078L31.54 72.305l-.8-3.916s9.185-1.689 11.303-2.081c2.123-.393 3.497-.165 4.064 1.152l.224.517 10.742-3.146.888 1.45zm-31.084 9.178c.165 1.234 1.33 1.775 2.542 1.349 1.147-.414 10.655-4.161 12.154-4.741 2.033-.786 3.15-.92 3.523.036.594 1.527 2.379 1.6 4.51.39 1.923-1.093 9.973-5.735 9.973-5.735s-3.711-5.856-4.096-6.473c-.572-.904-1.306-1.617-2.89-1.904l-9.83-1.758c-.511-1.138-1.945-2.333-4.027-2.856l-12.88-3.221c-1.278-.323-2.268.584-2.085 1.898 0 0 2.945 21.807 3.106 23.015z"/>
    <path d="M101.762 60.666a2.307 2.307 0 01-2.245 2.304h-6.573a2.303 2.303 0 01-2.245-2.304v-9.223h2.25v9.223a.3.3 0 00.297.298H95.1v-9.52h2.256v9.52h1.853c.165 0 .3-.136.3-.298v-9.223h2.252v9.223zm0 15.2H99.51v-4.808h-4.797l.767-1.752a.416.416 0 01.38-.25h3.65v-2.408a.304.304 0 00-.3-.302h-4.554a.306.306 0 00-.303.302v9.219h-2.25v-9.22c0-1.253 1-2.27 2.246-2.304v-.004h5.168v.004a2.307 2.307 0 012.245 2.305v9.219zm-13.096 0l-2.36-4.808H83.45l.76-1.752a.41.41 0 01.377-.25h3.556a.307.307 0 00.302-.303v-2.105a.307.307 0 00-.3-.302h-4.704c-.17 0-.303.14-.303.302v9.219h-2.252v-9.22a2.313 2.313 0 012.25-2.304v-.004h5.316v.004a2.308 2.308 0 012.246 2.305v2.132c0 1.152-.872 2.095-1.96 2.274l2.532 4.813h-2.605zm-8.978-13.758a.861.861 0 01-.857.862h-.649a.934.934 0 01-.743-.374l-4.323-6.702v7.076h-2.253V52.3c0-.47.385-.86.864-.86h.647a.92.92 0 01.742.38l4.323 6.68v-7.06h2.249v10.669zm0 4.238h-6.273a.303.303 0 00-.299.302v2.408h6.023v2.002h-6.023v2.506c0 .164.133.302.3.302h6.272v2H73.11a2.304 2.304 0 01-2.248-2.302v-6.916c0-1.248 1-2.271 2.248-2.305v-.004h6.577v2.007zM20.455 84.852h42.877V42.456H20.455v42.396zm60.432-31.103a2.31 2.31 0 012.25-2.306v-.004h6.362v2.01h-6.057a.303.303 0 00-.303.3v2.406h5.805v2.004h-5.805v2.505c0 .163.136.298.303.298H89.5v2.008h-6.363v-.003a2.31 2.31 0 01-2.25-2.303V53.75zM19 41v45.306h89.96V41.001L19 41z"/>
  </g>
</svg>
