<svg xmlns="http://www.w3.org/2000/svg" xmlns:xlink="http://www.w3.org/1999/xlink" width="128" height="128">
  <defs>
    <path id="a" d="M.005.031h57.823v26.846H.005z"/>
    <path id="c" d="M.048.041H46.37v13.155H.048z"/>
  </defs>
  <g fill="none" fill-rule="evenodd" transform="translate(19 43)">
    <path fill="#FFFFFE" d="M32.383 12.799h-2.662V2.29h-3.863V.03h10.384v2.26h-3.859v10.509m7.474-5.727v5.727h-2.668V.03h2.668v4.842h4.975V.03h2.672v12.769h-2.672V7.072h-4.975"/>
    <mask id="b" fill="#fff">
      <use xlink:href="#a"/>
    </mask>
    <path fill="#FFFFFE" d="M57.828 2.29h-6.705v2.684h5.909v2.259h-5.909v3.31h6.703v2.256h-9.187V.031h9.189V2.29M7.914 14.11h2.49v12.767H7.738l-5.21-9.102H2.49v9.102H0V14.11h2.808l5.064 8.889h.042V14.11" mask="url(#b)"/>
    <path fill="#FFFFFE" d="M17.75 24.957c1.442 0 3.465-.89 3.465-4.464 0-3.571-2.023-4.463-3.465-4.463-1.437 0-3.467.892-3.467 4.463 0 3.574 2.03 4.464 3.467 4.464m0-11.186c1.691 0 6.135.731 6.135 6.722 0 5.988-4.444 6.72-6.135 6.72-1.688 0-6.138-.732-6.138-6.72 0-5.991 4.45-6.722 6.138-6.722m24.951 13.106h-2.666V16.365h-3.864v-2.256h10.382v2.256h-3.852v10.512m7.478-5.724v5.724h-2.664V14.109h2.664v4.834h4.976v-4.834h2.671v12.768h-2.671v-5.724h-4.976M30.74 19.732c1.388 0 2.063-.482 2.063-1.746 0-.672-.307-1.667-1.866-1.667H27.61v3.413h3.13zm-5.745-5.622h6.456c3.397 0 4.016 2.506 4.016 3.613 0 1.403-.714 2.615-1.975 3.04 1.051.462 1.62.852 1.62 3.235 0 1.867 0 2.33.568 2.545v.333h-2.953c-.176-.599-.282-1.26-.282-2.573 0-1.745-.104-2.418-2.085-2.418h-2.75v4.991h-2.615V14.11zm-5.218 26.844h-2.663V28.187h9.08v2.259h-6.417v2.881h5.616v2.261h-5.616v5.366m9.22-4.834h3.252l-1.584-5.05h-.03l-1.638 5.05zm-1.603 4.834h-2.81l4.554-12.767h3.075l4.497 12.767h-2.9l-.816-2.632h-4.71l-.89 2.632zM44.9 32.41c-.209-.761-.625-2.201-2.823-2.201-1.282 0-3.172.853-3.172 4.46 0 2.294.911 4.36 3.172 4.36 1.475 0 2.506-.838 2.823-2.402h2.668c-.534 2.774-2.345 4.709-5.546 4.709-3.398 0-5.834-2.288-5.834-6.701 0-4.461 2.576-6.74 5.873-6.74 3.82 0 5.363 2.635 5.507 4.515H44.9"/>
    <g transform="translate(11.458 28.146)">
      <mask id="d" fill="#fff">
        <use xlink:href="#c"/>
      </mask>
      <path fill="#FFFFFE" d="M46.37 2.301h-6.705v2.682h5.91v2.26h-5.91v3.309h6.703v2.257h-9.187V.041h9.189v2.26M1.614 11.11h.373c.315 0 .601-.016.601-.378 0-.304-.262-.35-.502-.35h-.472v.728zm-.356-1.016h.884c.547 0 .802.215.802.654 0 .414-.26.587-.602.624l.655 1.01h-.383l-.622-.983h-.378v.984h-.356v-2.29zm.766 2.817c.906 0 1.608-.722 1.608-1.681 0-.938-.702-1.661-1.608-1.661-.918 0-1.62.723-1.62 1.66 0 .96.702 1.682 1.62 1.682zm0-3.63a1.95 1.95 0 011.964 1.949 1.954 1.954 0 01-1.964 1.971A1.96 1.96 0 01.048 11.23c0-1.105.901-1.949 1.976-1.949z" mask="url(#d)"/>
    </g>
    <path fill="#FFFFFE" d="M89.97 29.622c0-16.356-13.235-29.59-29.59-29.59h-.586v12.767h.587c9.512 0 17.225 7.643 17.34 17.13h.002v11.025H89.97V29.622m-29.59-1.434h-.587v12.766h6.125v-7.229a5.535 5.535 0 00-5.538-5.537"/>
    <path fill="#FFFFFE" d="M76.412 30.079c-.033-8.826-7.187-15.957-16.017-15.968h-.602v12.766h.587a6.844 6.844 0 016.847 6.848v7.23h9.185V30.079"/>
  </g>
</svg>
